<svg xmlns="http://www.w3.org/2000/svg" width="1000" height="735.4" viewBox="0 0 1000 735.4"><path d="M523.5 717.5c-25.4-24.1-37.5-35.8-41.4-95.9-3.9-60.1 16.2-103.4 16.2-103.4s2.8 28.3 22.6 84.4c19.8 56.1 62.1 90.5 62.1 90.5S566.9 645 563.9 572s4.7-115 4.7-115 9.7 31.4 47.5 65.1c37.7 33.8 73.3 42.5 73.3 42.5s-27.7-28.3-50.5-73.2c-22.8-44.9-29-69.3-29-69.3s10.3 11.6 42.7 19.7c32.3 8 74.8 1.3 74.8 1.3s-47.7-6.8-77.9-25.6c-30.2-18.9-38.7-32.3-38.7-32.3s-37.8 2-101.7 21.5c-63.9 19.5-110 53.8-110 53.8s43.2-44.2 118.4-69.4c75.2-25.3 164.6-24.8 230.4-19.2 65.8 5.6 135.9 19.6 169.2 18.3 27.9-1.1 42.9-7.8 47-9.9-12.8-6.3-47.6-21.3-104.9-30-73.6-11.2-93.2-20.9-158-35.8-77-17.6-106.8-17.4-133.7-19.7-30.7 20.6-62.3 24.7-98.2 34.3 0 0 65.2-22.3 88.8-41.9 23.6-19.6 39.4-40.9 58.7-53.8s47.2-19.1 47.2-19.1-32.8 11.2-52.4 31.1c-16.6 16.8-17.2 23.1-31.9 34.9 6.5-1.8 15.5-3.8 27.1-5.2 25.2-3.2 58.5-4.7 58.5-4.7l-32.8-9.5s30.5-4.9 55.5-7.8c25-2.9 60.5-2.9 60.5-2.9L703.4 231s25.9-1.9 54.9-9.3c19.9-5.1 39.6-11.8 50.4-15.7-76.8-36.7-163.7-70-163.7-70s6.2 7.9 9.4 12.3 8 7.3 8 7.3-10.8-2.6-14-2.2c-3.2.4-2.4 9.1-19.6 25.8 0 0 11.7-13.2 12.8-31.4.7-11.3-6.8-19-6.8-19s-13.7-20.9-60-50C523.7 46.6 491 28.5 491 28.5L504.5 63s-46.9-34.7-94.4-50.6C374.4.5 337.7-.3 321.5 0c-5.4.1-8.4.4-8.4.4s29 6.5 50.3 14.5c21.3 8 34.4 19.9 34.4 19.9S67.1 1.7 24.8 253.4c31.4-63.8 80.8-84.4 120.3-80.9 0 0-170 40.1-134.6 292.3 7.1-62.7 40.2-136.8 124.1-171-89.4 54.8-154 184.8 4.2 336.5-20.9-47.5-28.6-83.9-19.4-106.4-3.4 45 51.4 132.4 214.3 172.4-39.4-22.2-75.2-55.6-80.5-103.4 13.8 32.6 57.2 90.4 244 142.4-92.5-50.7-96.4-80.6-98.5-114.3 16.9 29.9 79 91.2 124.8 96.5zM411.1 121.8c1.4 2.8 8.4 14.7 34.1 29.4 29.4 16.8 63.9 22.6 63.9 22.6s-6.3 16.5 7.8 34.7c14.1 18.2 48.3 11.9 60.3 6.3 12-5.6 17.4-13.9 17.4-13.9s-2.6 9.1-8.3 14.5c-5.6 5.3-6.5 6.1-6.5 6.1s11.1-3.7 27.5-8.5c16.4-4.9 33.8-7.6 33.8-7.6s-47.2 16.4-70.6 24.4c-16.2 5.6-50.8 2.9-63.1-15.5-17.1-25.6-.4-23.8-29-38.4-27.5-15.6-60.2-34.2-67.3-54.1zm160 9.5s26.6 12.1 34.7 19.5 19.3 38.2 19.3 38.2-9.6-15.7-23.4-31.1c-13.9-15.4-30.6-26.6-30.6-26.6zm-31.6 40.6c6.2 0 12.1.7 17.4 3l2.1.9c-3.1 2.2-5.1 5.9-5 10 0 6.7 5.4 12 12.1 12 5.8 0 10.6-4.2 11.7-9.8 1.7 1.3 3.5 2.6 5.2 3.9-.7 4.7-2.9 10.4-9.2 13.3-13.7 6.4-35.2 1.6-40.6-13.7-3.3-9.3-1.3-15.7.9-19.5 1.7 0 3.6-.1 5.4-.1zm26.2 7.7c2.3 1.4 4.6 3.1 6.8 4.7-.6 1.5-2.2 2.6-4 2.6-2.4 0-4.4-1.8-4.4-4.1 0-1.3.6-2.4 1.6-3.2zm-155.6 13.3c19.4.4 36.6 10.2 36.6 10.2s-26.9-4.1-54.4 8.5-59.3 61.3-59.3 61.3 31.7-65.6 57.5-76.4c6.4-2.7 13.1-3.7 19.6-3.6zm184 4.7s5.4 4.8 12.2 6.2c6.7 1.4 20.9 2.6 20.9 2.6s-10.6 1-19.2.4c-8.6-.7-13.9-9.2-13.9-9.2zm-189.4 53.6c22.2-.1 52.3 11 52.3 11s-47.7-8.2-81.9 24.8c-52.7 50.9-58.6 133.3-58.6 133.3s-1.2-28.6 10.9-69.7 43.4-89.3 63.7-97.3c3.8-1.4 8.4-2 13.6-2.1zm32.4 66.1s-37.9 19.3-64.5 70.5C345.9 438.9 357 520.9 357 520.9s-22.3-102.3-3.2-140c27.6-54.7 83.3-63.6 83.3-63.6zm220 25.8c3.1-.1 6.3-.1 9.5-.1 67.7 1.2 136.5 19.6 186.6 29.6 60.3 11.9 87 8.1 87 8.1s-16.4 10.1-92-2.8c-58.9-10.1-136.3-23.7-211.5-19.8-78.3 4.9-121.6 17.3-121.6 17.3 50.7-23.1 94.9-31.4 142-32.3zm167.9-129c-4.6 1.4-10.4 3.1-17.9 4.9 21.6 10.4 67.7 34 99.7 59.9 45.3 36.8 73 94.5 73 94.5s-38.1-49.9-81-84.6c-35.3-28.6-96.7-57.9-112.3-65.2-30.8 6-67.5 10.8-67.5 10.8s9.5 4.2 30.8 7.3c21.3 3.1 42.5 5.7 42.5 5.7s-21.9 6.4-64.9 9.2c-43 2.8-76 6-76 6l46.4 11.7s-36.7 3.1-72.2 5.3c-25.9 1.6-41.4 3.8-48.1 4.9 15.7.4 53.1 4.9 142.8 25.4 144.3 33 191.2 45.8 216.5 55.4 15.2 5.7 23.9 11 28.6 14.3 0 0 7.7 3.1 16.2 9.9 8.5 6.8 15.5 15.3 15.5 15.3s-2.5-60.8-71-126.3c-22.8-21.8-60.7-44.2-101.1-64.4z" fill="#fff"/></svg>