<svg xmlns="http://www.w3.org/2000/svg" width="1000" height="487.9" viewBox="0 0 1000 487.9"><path fill="#fff" d="M57.7 186.2L29.5 8.2C18.2 4.9 12.6 3.3 1.3 0v39.2c3.8.8 5.6 1.3 9.4 2.1V296c-3.8.9-5.6 1.3-9.4 2.1v39.2c12.6-3.7 25.1-7.3 37.6-11v-36.7c-3.8.9-5.6 1.3-9.4 2.1V150.2l28.2 170.5L86 143.9v134.9c-3.8.9-5.6 1.3-9.4 2.1v34.2c12.5-3.7 25.1-7.4 37.6-11v-31.8c-3.8.8-5.6 1.3-9.4 2.1V62.5c3.8.8 5.6 1.3 9.4 2.1V32.8C102.9 29.7 97.3 28 86 24.7L57.7 186.2zm122.4 99.5c12.5-3.4 25.1-6.7 37.6-9.9v-25.5c-3.8.8-5.6 1.1-9.4 1.9L184.8 52.6c-7.5-2-11.3-3-18.8-5.1l-23.5 218.6c-3.8.8-5.6 1.2-9.4 2.1v30.6c12.5-3.6 25.1-7.1 37.6-10.5v-28.2c-3.8.8-5.6 1.2-9.4 2 1.2-14.6 2.4-29.2 3.6-43.9 8.4-.9 12.6-1.4 21.1-2.3 1.2 13.4 2.3 26.8 3.6 40.2-3.8.8-5.6 1.2-9.4 2-.1 15-.1 21.7-.1 27.6zm-11.8-105.9c2.8-20 5.3-39.6 7.1-59.7 1.7 20 3.7 39.6 7.1 59.4-5.7.2-8.5.2-14.2.3zm96.5-34.3l37.6 110.9c7.5-1.5 11.3-2.3 18.8-3.7V105.3c3.8.6 5.6.9 9.4 1.4V86.2C318 84 305.5 81.5 293 78.8v21.9c3.8.6 5.6.9 9.4 1.6v87.8c-13-38.2-25.1-74.1-37.6-117.5-11.3-2.6-16.9-3.9-28.2-6.7v24.6c3.8.7 5.6 1.1 9.4 1.8v152.4c-3.8.7-5.6 1.1-9.4 1.8V271c12.5-3.1 25.1-6 37.6-8.8v-22.7c-3.8.7-5.6 1-9.4 1.7v-95.7zm135.4-48.8c-11.9-1.4-23.9-3-35.8-4.8-6 3.6-9 6.2-15.1 12.7v128c6 6.5 9 9.2 15.1 12.7 11.9-1.8 23.8-3.4 35.8-4.8 6-5.4 9-8.9 15.1-16v-26.4c-7.5.3-11.3.4-18.8.8v23.3c-11.3 1.2-16.9 1.8-28.2 3.2V111.8c11.3 1.4 16.9 2 28.2 3.2v23.3c7.5.3 11.3.5 18.8.8v-26.4c-6-7.1-9-10.6-15.1-16zm71.6 119.9c-3.8.2-5.6.3-9.4.4v-39.5c11.3.1 16.9.2 28.2.4v38c-3.8.1-5.6.2-9.4.3v18.5c12.5-.3 25.1-.3 37.6 0v-18.5c-3.8-.1-5.6-.2-9.4-.3v-94.5c3.8-.1 5.6-.2 9.4-.3v-18.5c-12.5.3-25.1.3-37.6 0v18.5c3.8.1 5.6.2 9.4.3v38c-11.3.2-16.9.3-28.2.4v-39.5c3.8.2 5.6.3 9.4.5v-18.5c-12.5-.4-25.1-1.2-37.6-2.2v18.4c3.8.3 5.6.4 9.4.7v99c-3.8.3-5.6.4-9.4.7v18.4c12.5-1 25.1-1.8 37.6-2.2v-18.5zm141.1-5.1c-7.5-.6-11.3-.9-18.8-1.4v11.2c-11.3-1.1-16.9-1.6-28.2-2.4v-41.6c11.3-.1 16.9-.1 28.2-.1v-17c-11.3 0-16.9 0-28.2-.1v-41.6c11.3-.9 16.9-1.3 28.2-2.4v11.2c7.5-.5 11.3-.8 18.8-1.4V95.2c-25 3.3-50.1 5.7-75.3 6.8v18.4c3.8-.2 5.6-.3 9.4-.5v97.8c-3.8-.2-5.6-.3-9.4-.5v18.4c25.2 1.1 50.3 3.5 75.3 6.8v-30.9zm33.9 35.6c11.9 1.9 23.9 4 35.8 6.3 6-3.2 9-6 15.1-13.2v-66.7c-6-6.1-9-6.9-15.1-13.7-12.8.1-19.2.2-32 .2v-50.7c11.3-1.5 16.9-2.4 28.2-4.1v14c7.5-.9 11.3-1.3 18.8-2.2V97c-6-7.2-9-10-15.1-13.2-11.9 2.3-23.8 4.4-35.8 6.3-6 5.4-9 9.2-15.1 17.2v56.6c6 5.7 9 6.9 15.1 13.3 12.8.1 19.2.1 32 .2v54.5c-11.3-1.7-16.9-2.5-28.2-4.1v-12.9c-7.5-.8-11.3-1.1-18.8-1.8V230c6 7.9 9.1 11.7 15.1 17.1zm88.4-151.3c5.6-1 8.5-1.5 14.1-2.6v150.7c-3.8-.7-5.6-1.1-9.4-1.7v23.4c12.6 2.9 25.1 5.9 37.6 9.1v-25.3c-3.8-.7-5.6-1.1-9.4-1.8V89.7c5.6-1.1 8.5-1.7 14.1-2.8v18.4c7.5-1.1 11.3-1.7 18.8-2.9V56.5c-28.1 7.3-56.3 14.2-84.7 20.4v37.8c7.5-1 11.3-1.5 18.8-2.5.1-6.9.1-10.3.1-16.4zm84.7-16.7c3.8-.8 5.6-1.2 9.4-2V260c-3.8-.8-5.6-1.2-9.4-2v27.7c25.2 6.9 50.2 14 75.3 21.2v-56.4c-7.5-1.3-11.3-2-18.8-3.2v23c-11.3-2.5-16.9-3.8-28.2-6.2v-83.9c11.3.2 16.9.4 28.2.6v-24.4c-11.3.3-16.9.4-28.2.6V73c11.3-2.5 16.9-3.7 28.2-6.2v23.1c7.5-1.3 11.3-1.9 18.8-3.2V30.2c-25 7.2-50.1 14.3-75.3 21.2v27.7zM989.3 296V176.4c-2.3-3.9-3.4-5.5-5.6-7.7 2.3-2.2 3.4-3.8 5.6-7.7V31c-6-14.2-9-19.8-15.1-23.9-20 5.9-40.1 11.8-60.2 17.6v33.7c3.8-.9 5.6-1.3 9.4-2.1V281c-3.8-.9-5.6-1.3-9.4-2.1v33.6c12.6 3.7 25.1 7.4 37.6 11.1v-36.1c-3.8-.9-5.6-1.3-9.4-2.2V182.5c11.3.3 16.9.4 28.2.7v108.6c-3.8-.9-5.6-1.3-9.4-2.1v36.7c12.5 3.7 25.1 7.4 37.6 11v-39.2c-3.7-1-5.6-1.4-9.3-2.2zm-18.8-141.8c-11.3.3-16.9.4-28.2.7V52c11.3-2.6 16.9-3.9 28.2-6.4v108.6zm-728 278.4c.1 11.1.1 16.6.2 27.7-12.5.5-25 .9-37.6 1.5-.1-43.6-.3-87.3-.4-130.9 12.3-3.2 24.7-6.1 37.1-8.8.1 11.1.1 16.6.2 27.7 10-1.8 14.9-2.7 24.9-4.3-.1-13.7-.1-20.5-.2-34.2-8-7.5-12.1-11.1-20.1-18-15.7 4-31.4 8.3-46.9 13-7.8 10.7-11.8 16-19.6 26.2V468c8 7.7 12 11.8 20.1 20.1h47.7c8-8.9 12-13.5 19.9-22.8-.1-13.7-.1-20.5-.2-34.2-10.1.4-15.1.7-25.1 1.5zm150.7 23.8c-.1-23.1-.2-46.2-.4-69.4-3-3.6-4.6-5.4-7.6-9 3-3.9 4.5-5.9 7.5-9.9-.1-25.2-.3-50.4-.4-75.7-8.1-9.3-12.2-13.9-20.4-22.9-27 3.6-53.7 8-80.5 13.3.1 11.7.1 17.6.2 29.3 5-.9 7.5-1.3 12.5-2.1.4 49.4.7 98.9 1.1 148.3-5 .1-7.5.2-12.5.4.1 11.7.1 17.6.2 29.3h50.2c-.1-12.2-.1-18.4-.2-30.6-5 .1-7.5.2-12.6.3-.1-20.2-.3-40.4-.4-60.6 12.6-.9 25.1-1.7 37.7-2.4.1 20.7.3 41.5.4 62.2-5 .1-7.5.1-12.6.2.1 12.3.1 18.5.2 30.9h50.2c-.1-12.7-.1-19-.2-31.7-4.9-.1-7.4 0-12.4.1zm-63.5-89.7c-.1-20.2-.3-40.4-.4-60.6 12.6-1.8 25.2-3.4 37.8-4.8.1 20.7.3 41.5.4 62.2-12.6.9-25.2 2-37.8 3.2zm120.8-103.9c-8.1 10.7-12.1 16-20.2 26.8l.6 172.8c8.1 10.2 12.1 15.3 20.2 25.6h47.7c8-10.3 12-15.5 20.1-25.8.1-58.2.1-116.3.2-174.5-8.1-10.5-12.2-15.7-20.3-26-16.2-.1-32.3.3-48.3 1.1zm5.5 192.9c-.1-53.7-.3-107.3-.4-161 12.7-.5 25.4-.8 38-.8 0 53.9 0 107.8.1 161.6-12.6.1-25.1.1-37.7.2zm202.1-151.4c5 .7 7.5 1 12.6 1.7-6.2 33-12.3 65.9-18.3 98.9-8.7-25.4-17.4-50.9-25.9-76.3-9.1 24.5-18 49.2-26.9 73.8-5.7-35.2-11.5-70.5-17.2-105.7 5.1.3 7.6.5 12.7.9.1-12.7.1-19 .2-31.7-16.9-1.6-33.8-2.7-50.7-3.4 0 12.9 0 19.3-.1 32.2l12.7.5L581.8 456c-5-.1-7.5-.1-12.6-.1 0 12.8-.1 19.2-.1 32h50.2c.1-12.5.1-18.8.2-31.3-5-.1-7.5-.1-12.6-.2 6.3-16.6 12.7-33.1 19.1-49.6 6.1 16.8 12.3 33.6 18.5 50.3-5-.1-7.5-.2-12.6-.2-.1 12.4-.1 18.7-.2 31.1h50.2c.1-12 .1-18 .2-30-5-.1-7.5-.2-12.5-.3 8.6-49.2 17.3-98.5 26.2-147.6 5 .8 7.5 1.3 12.5 2.1.1-11.7.1-17.6.2-29.3-16.7-3.4-33.4-6.4-50.2-9-.1 12.1-.1 18.2-.2 30.4zm161.8 45.6v-17.6c-7.9-10.3-11.8-15.5-19.6-26.2-15.5-4.7-31.2-9.1-46.9-13-8 6.9-12 10.5-20.1 18-.2 22.8-.3 45.6-.5 68.4 7.9 10.1 11.9 15.1 19.8 24.9 14.1 1.6 28.3 3.2 42.4 5-.1 17.5-.1 34.9-.2 52.4-12.5-.5-25-1-37.6-1.5 0-5.5 0-8.3.1-13.8-10-.5-15-.8-25-1.3-.1 8-.1 12-.1 20 8 9.3 11.9 13.9 19.9 22.8h47.7c8.1-8.3 12.1-12.3 20.1-20.1v-60.2c-7.9-9.2-11.9-13.9-19.8-23.6-14.1-2.4-28.2-4.6-42.3-6.7l.3-55.3c12.4 2.7 24.8 5.7 37.1 8.8V344c9.9 2.2 14.9 3.4 24.7 5.9z"/></svg>